Coordinates
version=1
nRows=19
nColumns=34
inDegrees=yes

Units are S.I. units (second, meters, Newtons, ...)
If the header above contains a line with 'inDegrees', this indicates whether rotational values are in degrees (yes) or radians (no).

endheader
time	pelvis_tilt	pelvis_list	pelvis_rotation	pelvis_tx	pelvis_ty	pelvis_tz	hip_flexion_r	hip_adduction_r	hip_rotation_r	knee_angle_r	ankle_angle_r	subtalar_angle_r	mtp_angle_r	hip_flexion_l	hip_adduction_l	hip_rotation_l	knee_angle_l	ankle_angle_l	subtalar_angle_l	mtp_angle_l	lumbar_extension	lumbar_bending	lumbar_rotation	arm_flex_r	arm_add_r	arm_rot_r	elbow_flex_r	pro_sup_r	arm_flex_l	arm_add_l	arm_rot_l	elbow_flex_l	pro_sup_l
      0.00000000	     -0.59268734	      0.19840299	      1.14058303	     -0.01775074	      1.21457823	     -0.07014253	     -2.32386083	      0.33683615	     -4.12249571	      5.53713659	     16.83144235	      3.33582313	      0.00000000	     -2.02144239	     -3.92405659	     -7.24303701	      4.80633565	     14.58891967	      1.49847780	      0.00000000	     -2.29282209	      0.66030467	     -5.20168101	      7.85092267	     -6.96563098	     28.14767164	     27.67617358	     77.46752767	      1.56639876	     -9.20548588	     17.15285575	     38.57476356	     71.78033501
      0.01666670	     -2.58854085	     -0.01771027	      0.57374063	     -0.01711978	      1.21381835	     -0.07006587	     -0.05942068	      0.67228015	     -2.88277486	      5.84791233	     18.32191966	      4.06339385	      0.00000000	      0.20387164	     -3.75437716	     -8.54286634	      4.72170194	     14.60941696	      2.40295736	      0.00000000	      0.70630995	      1.03073170	     -4.45822015	      7.07303254	     -6.62284130	     25.98755676	     27.12059603	     77.25936347	      1.66874606	     -8.39995858	     16.62867150	     37.32450703	     72.12421034
      0.03333330	     -2.84327469	      0.39627021	     -0.11571867	     -0.01734068	      1.21391674	     -0.06809746	     -0.04613700	      0.33467325	     -2.61857616	      5.17745474	     17.45221643	      3.44374098	      0.00000000	      0.34712042	     -3.41758621	    -10.28852088	      4.54010875	     14.48808978	      3.33159487	      0.00000000	      1.18206361	      0.40026202	     -3.00738403	      6.57209959	     -5.53621190	     20.19703868	     27.07947876	     77.46005979	      2.78094316	     -8.23337200	     16.98564987	     35.02225570	     73.61147950
      0.05000000	     -2.70400658	      0.76630246	     -0.55171449	     -0.01780681	      1.21412012	     -0.06739903	     -0.25021699	     -0.05737196	     -2.32223520	      4.77093375	     17.63739535	      3.78264039	      0.00000000	     -0.30644247	     -2.95394441	    -10.81770857	      3.71029198	     13.95017885	      2.99214949	      0.00000000	      0.99089372	     -0.15945471	     -2.14818876	      6.57848165	     -5.40584951	     19.95767165	     27.12558528	     77.61985719	      2.84859834	     -8.71896840	     17.15289520	     35.13059527	     73.85735088
      0.06666670	     -2.75877595	      0.83169988	     -0.52112550	     -0.01907343	      1.21340535	     -0.06846229	     -0.21889122	     -0.11182431	     -2.32166777	      4.54965825	     17.63620550	      3.78339429	      0.00000000	     -0.25538912	     -2.82570097	    -10.82872401	      3.56986499	     14.01862163	      2.96115379	      0.00000000	      0.88569799	     -0.12134142	     -1.96512597	      6.66565395	     -5.31984124	     19.95884864	     27.16618826	     77.62705741	      2.74893571	     -8.85407231	     17.16132660	     35.07560266	     73.87156002
      0.08333330	     -2.69418585	      1.04022994	     -0.64310895	     -0.01654519	      1.21222725	     -0.07038085	     -0.50033832	     -0.36623125	     -2.18848085	      4.06726356	     17.46330388	      3.81046369	      0.00000000	     -0.57107100	     -2.46434252	    -10.87608601	      3.57231441	     14.30576680	      2.77220343	      0.00000000	      0.95496186	     -0.43064362	     -1.67050416	      6.53789825	     -5.37990057	     19.97196280	     27.15042502	     77.64562550	      2.50969553	     -9.01977429	     17.30110663	     34.95907894	     73.95185555
      0.10000000	     -2.17449725	      1.06210163	     -0.61383736	     -0.01584087	      1.21216983	     -0.07082176	     -1.32738635	     -0.43967069	     -1.85957395	      3.60474036	     16.92210451	      3.12407664	      0.00000000	     -1.35061167	     -2.30007183	    -10.64183564	      3.46672549	     14.37492678	      2.52035937	      0.00000000	      0.31662812	     -0.38366463	     -0.79908140	      6.14281913	     -5.71706507	     20.33281797	     27.16292829	     77.74391363	      3.25308268	     -8.95706604	     18.83730227	     34.27051247	     74.71949393
      0.11666670	     -2.23181434	      1.09331192	     -0.53788520	     -0.01791792	      1.21302743	     -0.07148488	     -1.30170774	     -0.52551032	     -1.86161821	      3.49746989	     16.95553792	      3.09575451	      0.00000000	     -1.33950122	     -2.17129922	    -10.65187618	      3.49980077	     14.43628921	      2.48435620	      0.00000000	      0.20530110	     -0.33077292	     -0.74056595	      6.01907224	     -5.81119739	     20.33721184	     27.10540545	     77.74284445	      3.03466388	     -9.03013527	     18.88286602	     34.14778207	     74.73736095
      0.13333330	     -2.45805044	      1.16629537	     -0.35256566	     -0.01737185	      1.21297171	     -0.07290862	     -1.22866042	     -0.64853018	     -1.65105874	      3.25347858	     16.74401091	      2.47068717	      0.00000000	     -1.03144108	     -1.98736458	    -10.10443885	      3.73389095	     14.48689001	      1.78157531	      0.00000000	      0.81473973	     -0.39566768	     -0.41466100	      5.65100204	     -6.08648933	     21.03952217	     26.24048767	     77.71173088	      3.77704849	     -8.87637298	     21.34499537	     31.00157304	     75.86258320
      0.15000000	     -2.46371199	      1.21846413	     -0.21873501	     -0.01652097	      1.21421023	     -0.07493371	     -1.29306110	     -0.80215944	     -1.70535290	      3.21108443	     16.66995937	      2.45054914	      0.00000000	     -1.00786411	     -1.82299206	    -10.08529884	      3.82491288	     14.46065315	      1.80036610	      0.00000000	      0.61708593	     -0.36860039	     -0.40727031	      5.30981103	     -6.35548173	     21.03205067	     26.07114223	     77.70386230	      3.44217670	     -8.91676053	     21.40575231	     30.85812460	     75.88293749
      0.16666670	     -2.33386475	      1.27012757	      0.21705426	     -0.01512182	      1.21378374	     -0.07537591	     -1.77981818	     -0.89712112	     -2.10484958	      2.74571396	     16.19022396	      2.32776529	      0.00000000	     -1.14669022	     -1.69564437	     -9.62213769	      3.87381230	     14.24313719	      1.55656170	      0.00000000	      0.63160389	     -0.40924081	     -0.54798053	      5.02097584	     -6.51347085	     21.06718762	     25.34076223	     77.58693907	      3.50006369	     -8.77717350	     22.28387378	     29.09475352	     76.29518518
      0.18333330	     -2.32026541	      1.29985597	      0.34407401	     -0.01398547	      1.21301997	     -0.07783359	     -1.88989313	     -1.02071696	     -2.10143051	      2.78153394	     16.17155660	      2.32391971	      0.00000000	     -1.16959676	     -1.60703049	     -9.57501021	      3.95843637	     14.15822906	      1.59242552	      0.00000000	      0.49544621	     -0.35279258	     -0.51233214	      4.59837696	     -6.79673700	     21.05752680	     25.14180389	     77.57897463	      3.02886855	     -8.91604382	     22.33029690	     28.86351305	     76.30941643
      0.20000000	     -2.21206799	      1.29989842	      0.69768218	     -0.01188210	      1.21416076	     -0.07888224	     -2.39135114	     -1.09191054	     -2.43619103	      2.42614496	     15.98703429	      2.31851404	      0.00000000	     -1.44696211	     -1.51253625	     -9.09471436	      3.76708192	     13.83914632	      1.34979832	      0.00000000	      0.80550319	     -0.25947350	     -0.68896292	      4.19265531	     -6.91397433	     20.92521238	     24.04694684	     77.41385762	      3.03167611	     -8.62757240	     23.07156699	     26.18274023	     76.64578378
      0.21666670	     -2.24688585	      1.31396244	      0.81905631	     -0.01363739	      1.21526344	     -0.07856969	     -2.44284146	     -1.15077213	     -2.47739871	      2.33583437	     15.97777099	      2.29202307	      0.00000000	     -1.38902229	     -1.44716096	     -9.08661186	      3.66132229	     13.81558901	      1.36114456	      0.00000000	      0.59852300	     -0.22843251	     -0.64648687	      3.79305291	     -7.23787536	     20.90172703	     23.84964999	     77.40428676	      2.54666205	     -8.80947259	     23.10225986	     25.95298158	     76.65347562
      0.23333330	     -2.22886749	      1.33596282	      1.09532654	     -0.01357434	      1.21155208	     -0.07926046	     -2.81878058	     -1.21680281	     -2.61537177	      1.93045292	     15.93814193	      2.22020560	      0.00000000	     -1.55806567	     -1.36877805	     -8.82972638	      3.27532809	     13.63080916	      1.52072434	      0.00000000	      0.89135393	     -0.17541206	     -0.76764624	      3.25682723	     -7.50527032	     20.81655063	     23.49986993	     77.35730190	      1.94205170	     -8.87282326	     23.20638944	     25.23062341	     76.68591178
      0.25000000	     -2.20271345	      1.33557615	      1.17925704	     -0.01507088	      1.21131157	     -0.07988636	     -2.87160858	     -1.24687065	     -2.66212089	      1.96234033	     15.96674099	      2.17844216	      0.00000000	     -1.49913865	     -1.34567169	     -8.77198030	      3.24388406	     13.59373859	      1.55299348	      0.00000000	      0.67491993	     -0.14084855	     -0.75401992	      2.94591233	     -7.83366010	     20.77221159	     23.30114161	     77.34211908	      1.49176813	     -9.08667875	     23.21869500	     24.92013926	     76.68746381
      0.26666670	     -2.12654379	      1.32045571	      1.51585579	     -0.01673973	      1.21013724	     -0.08015610	     -3.12567616	     -1.26935380	     -3.05063673	      1.75493764	     15.87649872	      1.92086872	      0.00000000	     -1.53774068	     -1.30548635	     -8.44277248	      3.07043459	     13.46866311	      1.47290588	      0.00000000	      0.80767812	     -0.06638258	     -1.36280490	      2.95347488	     -7.91238575	     20.30649386	     22.50682604	     77.09983999	      1.45275081	     -8.83665965	     23.30586130	     22.12430108	     76.69797682
      0.28333330	     -2.13766566	      1.31180939	      1.59132602	     -0.01737656	      1.21306334	     -0.08000646	     -3.09519355	     -1.26796291	     -3.07165900	      1.73383136	     15.92047700	      1.88341198	      0.00000000	     -1.44688835	     -1.30877386	     -8.40248888	      3.01097803	     13.43965799	      1.50051926	      0.00000000	      0.55812062	     -0.05633602	     -1.26080747	      2.69575496	     -8.15916062	     20.28329480	     22.37566099	     77.09113243	      1.03488705	     -9.04563967	     23.30557574	     21.92662562	     76.69524642
      0.30000000	     -2.09928924	      1.30129531	      1.59040727	     -0.01804992	      1.20970007	     -0.08152756	     -3.09011240	     -1.27962851	     -3.14041062	      1.71609777	     15.97371453	      1.80788223	      0.00000000	     -1.40414905	     -1.29899486	     -8.34341529	      3.02417376	     13.38864690	      1.54153593	      0.00000000	      0.36010679	     -0.05616707	     -1.20596974	      2.37165499	     -8.50215452	     20.24459901	     22.22940980	     77.07823253	      0.53004592	     -9.25562363	     23.30586591	     21.68195940	     76.69062631
